<?xml version="1.0" encoding="UTF-8" standalone="no"?>
<!-- Created with Inkscape (http://www.inkscape.org/) -->

<svg
        version="1.1"
        id="svg2"
        width="2666.6667"
        height="2666.6667"
        viewBox="0 0 2666.6667 2666.6667"
        sodipodi:docname="11235630_10847.eps"
        xmlns:inkscape="http://www.inkscape.org/namespaces/inkscape"
        xmlns:sodipodi="http://sodipodi.sourceforge.net/DTD/sodipodi-0.dtd"
        xmlns="http://www.w3.org/2000/svg"
>
    <defs
            id="defs6"/>
    <sodipodi:namedview
            id="namedview4"
            pagecolor="#ffffff"
            bordercolor="#000000"
            borderopacity="0.25"
            inkscape:showpageshadow="2"
            inkscape:pageopacity="0.0"
            inkscape:pagecheckerboard="0"
            inkscape:deskcolor="#d1d1d1"/>
    <g
            id="g8"
            inkscape:groupmode="layer"
            inkscape:label="ink_ext_XXXXXX"
            transform="matrix(1.3333333,0,0,-1.3333333,0,2666.6667)">
        <g
                id="g10"
                transform="scale(0.1)">
            <path
                    d="M 20000,0 H 0 V 20000 H 20000 V 0"
                    style="fill:#ffffff;fill-opacity:1;fill-rule:nonzero;stroke:none"
                    id="path12"/>
            <path
                    d="M 4613.13,1516.1 C 2366.2,2139.6 1926.2,5917.7 4075.67,8478.8 5778.54,10507.7 1754.92,15641.8 6294.38,17647.2 10616.7,19556.6 17166.2,14761.9 17801.9,7584.7 18208.8,2991.1 15566.2,1516.1 15566.2,1516.1 H 4613.13"
                    style="fill:#d6eef6;fill-opacity:1;fill-rule:nonzero;stroke:none"
                    id="path14"/>
            <path
                    d="M 17684.1,1468.3 H 2210.3 c -65.06,0 -117.8,52.8 -117.8,117.8 v 0 c 0,65.1 52.74,117.8 117.8,117.8 h 15473.8 c 65.1,0 117.8,-52.7 117.8,-117.8 v 0 c 0,-65 -52.7,-117.8 -117.8,-117.8"
                    style="fill:#00b3bf;fill-opacity:1;fill-rule:nonzero;stroke:none"
                    id="path16"/>
            <path
                    d="m 11422.7,8397.1 c -66.9,150.1 -151,616.2 -179.2,774.6 13.3,103 26.2,125.6 8,194.5 -24.3,91.9 -70.9,130.2 -110.3,154.5 -39.4,24.4 -168,219.4 -221.9,203.9 -53.8,-15.5 110,-235.4 74.7,-213.7 -35.2,21.8 -109.8,272.6 -185.9,250.7 -76.2,-21.9 113,-299.8 72.1,-311.5 -40.8,-11.8 -128.8,195.5 -190.1,177.9 -61.3,-17.7 133.7,-277.5 113,-264.7 -20.7,12.8 -166,111.9 -185.4,84.1 -21.9,-31.3 321,-322.7 331.2,-408 v 0 c -2.4,-219.1 -11.3,-616.4 85,-855.2 117.7,-292.1 408.6,-938.2 408.6,-938.2 l 454.4,161.1 c 0,0 -394.9,811.9 -474.2,990"
                    style="fill:#f7a491;fill-opacity:1;fill-rule:nonzero;stroke:none"
                    id="path18"/>
            <path
                    d="m 10937.2,9445.4 c -57.2,-3.5 -156.5,-8.3 -182.7,0.6 v 0 c 11.7,14.8 44.1,25.3 84.8,32.6 16,-19.3 30.1,-31.6 40.9,-28.5 8.2,2.3 7.1,15.3 0.9,34.7 95.7,11.5 210.8,10.4 224.1,8.2 21.7,-3.4 60.7,-88.4 60.7,-88.4 0,0 -21,-15.5 -43.3,0 -50.3,35 -128.2,44.2 -185.4,40.8"
                    style="fill:#f48c7f;fill-opacity:1;fill-rule:nonzero;stroke:none"
                    id="path20"/>
            <path
                    d="m 11113.5,9404.6 c -21.8,-12.8 -39.2,-30.7 -53.9,-50.6 -1.4,-3.8 -53.7,-65 -29.2,-152.7 4.4,55.8 9.4,117.6 83.1,203.3"
                    style="fill:#f48c7f;fill-opacity:1;fill-rule:nonzero;stroke:none"
                    id="path22"/>
            <path
                    d="m 12762.6,8865.7 c 0,0 193.5,88.8 326.7,-36 133.3,-124.8 92.5,-219.7 92.5,-219.7 0,0 238.3,-42.5 219.4,-269.3 -18.9,-226.8 -60.5,-246.1 -60.5,-246.1 0,0 89.1,-97.6 61.6,-214.5 -27.6,-117 -137.3,-148.9 -137.3,-148.9 0,0 -72.2,-193.2 -234.8,-219.7 -162.7,-26.6 -217.2,4 -217.2,4 0,0 -90.2,-121.1 -349.8,-67.7 -95.1,19.5 -155.2,65.5 -164.6,88.6 0,0 -202.3,32.4 -272.4,122.2 -122.9,157.4 -66.8,264.6 -66.8,264.6 0,0 -133,241.5 -32.2,418.7 80.3,140.9 133.4,122.8 133.4,122.8 0,0 -65.3,347.3 247.4,285.9 0,0 120.4,280.5 454.6,115.1"
                    style="fill:#13375b;fill-opacity:1;fill-rule:nonzero;stroke:none"
                    id="path24"/>
            <path
                    d="m 14439.7,7331.2 c 0,0 -20,73.8 29.9,196.4 32.1,78.6 27.8,231.3 73.2,203.3 45.3,-28.1 -3.3,-167.4 34.7,-155.1 38,12.3 158.5,296.5 199.7,271 41.1,-25.4 -89.8,-286.2 -55.7,-275.2 34,11 128.2,261.9 186.3,225.9 58.2,-35.9 -137,-284.7 -105.8,-304 31.2,-19.3 150.3,140.8 197.1,111.8 46.8,-29 -172.6,-210.7 -152.5,-204.3 20,6.5 162.3,60 172.1,31.6 11.2,-32.1 -284.1,-161.3 -311.5,-233 -27.4,-71.7 -480.1,-805.9 -630.2,-822.4 -150.1,-16.4 -873.5,367.3 -938.4,510.4 -64.9,143.2 -20.8,307.1 75.2,338.2 96.1,31 773.5,-353.9 803.6,-344.1 30.2,9.7 422.3,449.5 422.3,449.5"
                    style="fill:#f7a491;fill-opacity:1;fill-rule:nonzero;stroke:none"
                    id="path26"/>
            <path
                    d="m 14571.1,7524.3 c 17,-18.7 28.3,-41 36.4,-64.4 0.2,-4.1 31.9,-78 -17.6,-154.5 12.4,54.6 26,115.1 -18.8,218.9"
                    style="fill:#f48c7f;fill-opacity:1;fill-rule:nonzero;stroke:none"
                    id="path28"/>
            <path
                    d="m 11675.5,7942.5 c 0,0 -102.6,-30.8 -418.7,-460.4 l 538.9,-857.5 277.7,800.9 -397.9,517"
                    style="fill:#86b1f2;fill-opacity:1;fill-rule:nonzero;stroke:none"
                    id="path30"/>
            <path
                    d="m 11570.3,4252.3 c 0,0 -20.6,-423.1 -20.6,-681.1 0,-258 397.3,-1269.3 361.2,-1413.8 -36.2,-144.5 374.4,-124.8 374.4,-124.8 0,0 28,785.3 -77.7,1156.8 -105.8,371.5 0,1135.1 0,1135.1 l -637.3,-72.2"
                    style="fill:#ffa283;fill-opacity:1;fill-rule:nonzero;stroke:none"
                    id="path32"/>
            <path
                    d="m 12567,4456.3 c 0,0 133.3,-699.3 241.7,-859.3 108.3,-159.9 691.4,-1248.7 691.4,-1388 0,-139.3 366.3,-25.8 366.3,-25.8 0,0 -309.5,1191.9 -433.4,1553.1 -123.8,361.2 -170.3,660.5 -170.3,660.5 l -695.7,59.5"
                    style="fill:#ffa283;fill-opacity:1;fill-rule:nonzero;stroke:none"
                    id="path34"/>
            <path
                    d="m 11565.2,5150.1 c -38,-230.1 -192.2,-1627.8 -192.2,-1627.8 0,0 526.1,-161.6 840.8,-89.4 0,0 16.7,1094.5 88.9,1094.5 0.7,0 -0.7,0 0,0 103.2,-0.5 155.8,-102.7 180.7,-202.9 60.2,-242.2 240.5,-913.2 240.5,-913.2 0,0 706.8,101.2 851.3,168.3 0,0 -264,1572.5 -506.5,1815 l -291,261.2 -1060.4,136.7 c 0,0 -125.3,-479.6 -152.1,-642.4"
                    style="fill:#13375b;fill-opacity:1;fill-rule:nonzero;stroke:none"
                    id="path36"/>
            <path
                    d="m 11286.5,1713.7 h 1127.4 c 0,0 23.3,407.6 -54.1,485 -77.4,77.4 -56.8,-9.8 -185.8,-59.1 -129,-49.2 -212.9,69.6 -271.9,128.5 -58.9,59 -17,-188.1 -264.7,-188.1 -247.7,0 -407.6,-252.8 -350.9,-366.3"
                    style="fill:#466eb6;fill-opacity:1;fill-rule:nonzero;stroke:none"
                    id="path38"/>
            <path
                    d="m 13488.3,2253.9 c -58.3,-13.4 -241.9,-163.1 -302.7,-325 -60.9,-161.9 -43.5,-219.8 -43.5,-219.8 0,0 186.5,-82.9 544.6,-56.7 358.1,26.1 303.4,65.4 303.4,65.4 0,0 -25.5,368.4 -86.4,480.4 -60.8,112 -313.3,79.2 -415.4,55.7"
                    style="fill:#466eb6;fill-opacity:1;fill-rule:nonzero;stroke:none"
                    id="path40"/>
            <path
                    d="m 12413.9,1713.7 c 0,0 4.9,84.6 2.8,184.1 -132.2,-57.2 -857.6,-48 -1121.2,-42.6 -23,-52.9 -27.4,-104.6 -9,-141.5 h 1127.4"
                    style="fill:#ffffff;fill-opacity:1;fill-rule:nonzero;stroke:none"
                    id="path42"/>
            <path
                    d="m 13686.7,1652.4 c 358.1,26.1 303.4,65.4 303.4,65.4 0,0 -5.9,84.9 -18.7,185.5 h -0.1 c -249.3,-222.5 -638.5,-108.9 -808.8,-42.7 -32.8,-110.2 -20.4,-151.5 -20.4,-151.5 0,0 186.5,-82.9 544.6,-56.7"
                    style="fill:#ffffff;fill-opacity:1;fill-rule:nonzero;stroke:none"
                    id="path44"/>
            <path
                    d="m 12522.6,7378.8 c 0,0 -377.6,55.4 -464.1,66 -126.3,-146.6 -509,-1642.3 -502.8,-2184.3 459,-164.9 1479.3,-388.3 1779.5,-377.9 0,0 -46.8,385.1 -77.8,565.4 -75.8,440.2 -137,989 -137,1139.5 0,88.5 458.3,-218.2 458.3,-218.2 l 192,694 c 0,0 -585.1,235 -790.1,277.3 -57.2,11.8 -458,38.2 -458,38.2"
                    style="fill:#9bc1f9;fill-opacity:1;fill-rule:nonzero;stroke:none"
                    id="path46"/>
            <path
                    d="m 12388.6,7731.4 c 0,0 50.9,-370.8 -57.1,-471.1 -113.9,-105.9 412.6,-76.7 449.8,98.2 20.1,94.6 -51.9,511.9 -51.9,511.9 l -340.8,-139"
                    style="fill:#f7a491;fill-opacity:1;fill-rule:nonzero;stroke:none"
                    id="path48"/>
            <path
                    d="m 12729.4,7870.4 -340.8,-139 c 0,0 12.5,-90.9 12,-194.8 83.3,-12.2 178.1,5.7 280.5,65.7 29.5,17.3 56.2,36.4 80.5,56.9 -15.1,112.4 -32.2,211.2 -32.2,211.2"
                    style="fill:#f48c7f;fill-opacity:1;fill-rule:nonzero;stroke:none"
                    id="path50"/>
            <path
                    d="m 12900.5,7994.1 c -27.3,-76.3 -7.7,-153.2 43.9,-171.7 51.6,-18.5 115.6,28.4 143,104.7 27.3,76.4 7.7,153.2 -43.9,171.7 -51.6,18.5 -115.6,-28.4 -143,-104.7"
                    style="fill:#f7a491;fill-opacity:1;fill-rule:nonzero;stroke:none"
                    id="path52"/>
            <path
                    d="m 11992.5,8181.5 c -3.8,-81 37.5,-148.8 92.2,-151.4 54.8,-2.5 102.2,61 106.1,142 3.8,81 -37.5,148.8 -92.2,151.3 -54.8,2.6 -102.2,-60.9 -106.1,-141.9"
                    style="fill:#f7a491;fill-opacity:1;fill-rule:nonzero;stroke:none"
                    id="path54"/>
            <path
                    d="m 12645.5,8680.6 c 0,0 164.9,-43.6 261.8,-204.1 97,-160.5 150.5,-624.4 -195.6,-827.3 -346.2,-202.9 -598,111.3 -591.4,408.6 6.5,297.2 138.6,677.3 525.2,622.8"
                    style="fill:#f7a491;fill-opacity:1;fill-rule:nonzero;stroke:none"
                    id="path56"/>
            <path
                    d="m 11241.3,9333 c 3,64.4 -27.4,117.6 -47.5,144.9 -20.1,27.3 -129,76.4 -149.2,86.2 -12.9,3.4 -22.1,-60.9 24.1,-92.7 46.1,-31.9 56.3,-52 34.8,-107.2 82.5,-87.8 137.8,-31.2 137.8,-31.2"
                    style="fill:#f7a491;fill-opacity:1;fill-rule:nonzero;stroke:none"
                    id="path58"/>
            <path
                    d="m 9555.43,8643.8 c 0,0 -52.19,84.3 -67.36,113.6 -17.8,34.3 -63.05,141.2 -63.05,141.2 0,0 -140.1,379.3 -110.92,386.9 29.18,7.7 89.89,-44.7 106.84,-65.2 16.92,-20.5 38.73,-43 55.68,-63.5 16.93,-20.5 46.26,-25.3 73.38,-6.6 27.12,18.6 -22.54,114.7 -46.38,144.6 -74.31,93.2 -323.32,303.6 -348.71,326.9 -30.05,27.7 -150.62,728.2 -211.25,965.3 0.04,0 0.08,0 0.1,0 -87.54,390.8 -157.71,796.5 -166.79,837.9 l 129.48,1703 -615.47,297.4 c 0,0 -170.65,-1887.7 -168.23,-1983.2 1.15,-45.4 275.08,-936.5 275.43,-936.4 162.83,-430.7 307.41,-809.8 333.07,-883.4 0,0 17.06,-239.7 18.75,-392.9 1.73,-153.1 65.71,-294.1 72.9,-337.2 1.05,-6.3 17.63,-155.7 104.63,-319.9 74.98,-141.4 69.46,26.8 69.46,26.8 0,0 -91.26,286.8 -67.13,290.1 18.6,2.4 59.08,-157.1 140.38,-314.5 20.91,-40.5 41.69,-80.4 61.09,-116.8 50.87,-95.8 124.91,-92.2 87.81,16.4 -13.1,38.4 -36.43,101.5 -59.51,144.2 -24.94,46.2 -32.76,96.5 -47.72,138.5 -29.7,83.3 -52.41,143.6 -48.27,142.9 5.38,-0.8 11.3,19.9 34.84,-22.4 28.3,-50.8 64.25,-172 111.74,-243.6 26.91,-40.5 77.96,-128.7 77.96,-128.7 0,0 98.55,-134.1 107.6,-130.5 49.04,19.5 6.21,135.3 -37.68,185.6 -11.24,46.3 -67.6,137.6 -67.6,137.6 0,0 -72.04,209.9 -42.13,220.4 24.56,8.7 295.3,-461 343.05,-438.1 39,18.7 -35.99,163.6 -35.99,163.6"
                    style="fill:#f79c8d;fill-opacity:1;fill-rule:nonzero;stroke:none"
                    id="path60"/>
            <path
                    d="m 7747.28,16852.2 c -1269.7,-360.5 -2062.74,-1630 -2250.6,-2876.3 -74.59,-494.9 26.48,-1051.2 330.07,-1456.8 373.82,-499.5 998.76,-585 1554.22,-330.4 506.54,232.2 657.73,706.8 1028.58,1073.5 193.5,191.3 13.04,1144.3 177.19,1360 291.49,382.9 632.86,872.2 602.17,1376.2 -50.9,834.9 -669.28,1073.1 -1441.63,853.8"
                    style="fill:#184655;fill-opacity:1;fill-rule:nonzero;stroke:none"
                    id="path62"/>
            <path
                    d="m 5710.17,3203.1 c 0,0 -57.15,-568.1 -204.13,-672.5 -146.96,-104.3 -342.92,-490.3 -244.94,-698.9 30.62,-65.2 91.85,-102.9 161.59,-123.9 206.47,-62.2 426.13,42.6 514.03,235.8 49.11,107.9 92.2,251.8 100.86,433.2 22.06,461.6 169.01,696.3 169.01,696.3 l -496.42,130"
                    style="fill:#f7a491;fill-opacity:1;fill-rule:nonzero;stroke:none"
                    id="path64"/>
            <path
                    d="m 7968.57,2970.6 c 0,0 46.33,-573.3 8.73,-759.6 -20.14,-99.8 -132.26,-305.2 -80.81,-399 51.43,-93.9 110.21,-117.4 110.21,-117.4 l 1333.12,-21 c 72.61,-1.1 24.62,44.5 -33.91,86.6 -95.85,68.8 -173.19,114.3 -479.33,259 -19.95,9.4 -92.66,54.6 -118.87,70.2 -66.48,39.7 -133.23,102.1 -190.68,164.6 -95.74,104.1 -104.11,608.9 -104.11,608.9 l -444.35,107.7"
                    style="fill:#f7a491;fill-opacity:1;fill-rule:nonzero;stroke:none"
                    id="path66"/>
            <path
                    d="m 9010.54,10591.1 c 0,0 95.14,-918.7 57.65,-1541.1 -37.27,-618.6 -639.28,-6266.6 -639.28,-6266.6 L 7841,2751 c 0,0 -123.24,2362.8 -101.21,2691.3 22.07,328.6 196.52,878.5 196.52,878.5 l -58.51,1907.8 741.91,2506.1 390.83,-143.6"
                    style="fill:#3c8f7c;fill-opacity:1;fill-rule:nonzero;stroke:none"
                    id="path68"/>
            <path
                    d="m 7282.61,10786.9 c 0,0 -462.93,-680.7 -573.15,-1244 -110.22,-563.3 80.9,-2294.5 -131.13,-3032.6 -114.78,-399.6 -549.79,-1016.6 -615.92,-1533 -66.13,-516.4 -325.56,-1868.9 -325.56,-1868.9 l 587.64,-113.8 1365.73,3377.9 988.52,2817.3 c 55.09,156.9 97.1,318 125.64,481.6 l 231.53,1326.6 -1653.3,-211.1"
                    style="fill:#50bfa5;fill-opacity:1;fill-rule:nonzero;stroke:none"
                    id="path70"/>
            <path
                    d="m 7657.36,14659.5 c 0,0 -470.92,-35.6 -647.87,-303.2 -194.64,-294.5 391.96,-2333.6 436.04,-2662.1 44.08,-328.6 -291.26,-1111.8 -291.26,-1111.8 0,0 1444.75,-257.3 1856.27,8.7 0,0 44.08,2362.8 0,2597.5 -44.1,234.7 -411.52,1189.2 -499.71,1283.1 -88.18,93.9 -853.47,187.8 -853.47,187.8"
                    style="fill:#f47458;fill-opacity:1;fill-rule:nonzero;stroke:none"
                    id="path72"/>
            <path
                    d="m 7861.41,15459.5 c 0,0 -3.19,-17.6 -8.87,-47.6 -27.32,-144 -132.56,-621.5 -203.66,-752.8 -85.91,-158.6 294.14,-664.6 659.93,-602.8 108.88,18.3 -92.04,464.9 -82.39,512.2 18.48,90.5 43.56,214 69.21,340.7 14.45,71.4 29.11,143.9 42.88,211.9 39.11,193.5 71.04,351.8 71.04,351.8 l -548.14,-13.4"
                    style="fill:#f7a491;fill-opacity:1;fill-rule:nonzero;stroke:none"
                    id="path74"/>
            <path
                    d="m 7852.54,15411.9 c 5.68,30 8.87,47.6 8.87,47.6 l 548.14,13.4 c 0,0 -31.93,-158.3 -71.04,-351.8 -13.69,-67.7 -28.25,-139.7 -42.64,-210.7 -84.62,12.1 -173.05,52.3 -261.72,128.1 -96.65,82.7 -160.01,182 -198.24,288 6.77,33.9 12.39,63.1 16.63,85.4"
                    style="fill:#f47458;fill-opacity:1;fill-rule:nonzero;stroke:none"
                    id="path76"/>
            <path
                    d="m 8504.97,16549.8 c 0,0 -225.08,14.7 -424.56,-153.5 -199.48,-168.2 -496.61,-753.5 -170.93,-1170.7 325.67,-417.3 792.78,-114.9 932.81,277.9 140.03,392.8 239.96,944.1 -337.32,1046.3"
                    style="fill:#f7a491;fill-opacity:1;fill-rule:nonzero;stroke:none"
                    id="path78"/>
            <path
                    d="m 8586.72,16531 c 0,0 -510.51,-551.6 -758.02,-529.6 -247.5,21.9 -399.08,-172 -399.08,-172 0,0 233.32,704.3 501.18,794.8 267.85,90.6 655.92,-93.2 655.92,-93.2"
                    style="fill:#184655;fill-opacity:1;fill-rule:nonzero;stroke:none"
                    id="path80"/>
            <path
                    d="m 5976.77,2045.1 c -320.27,-57 -533.38,126 -644.25,263 -81.41,-155.2 -131.3,-348.9 -71.42,-476.4 52.74,-112.3 196.3,-143 317.66,-147.4 128.3,-4.6 248.28,61 311.94,170.2 29.73,50.9 60.38,114.4 86.07,190.6"
                    style="fill:#3c8f7c;fill-opacity:1;fill-rule:nonzero;stroke:none"
                    id="path82"/>
            <path
                    d="m 8707.52,2089.5 c -352.54,-88.3 -613.18,-28.3 -758.97,29.2 -37.6,-104.1 -87.42,-234.7 -61.01,-310 32.37,-92.2 78.45,-113.1 119.16,-114.1 322.05,-8.3 1179.64,-19.5 1425.18,-22.6 34.3,-0.5 53.21,38.7 31.16,64.4 -60.89,71 -729.24,337.5 -755.52,353.1"
                    style="fill:#3c8f7c;fill-opacity:1;fill-rule:nonzero;stroke:none"
                    id="path84"/>
            <path
                    d="m 7854.83,15924.1 c 20.07,-106.8 -20.31,-204.9 -90.22,-218.9 -69.9,-14 -142.84,61.2 -162.94,168.1 -20.04,106.9 20.33,204.8 90.22,218.9 69.9,14 142.85,-61.3 162.94,-168.1"
                    style="fill:#f7a491;fill-opacity:1;fill-rule:nonzero;stroke:none"
                    id="path86"/>
            <path
                    d="m 8223.99,8643.8 c 0,0 -52.22,84.3 -67.37,113.6 -17.78,34.3 -63.05,141.2 -63.05,141.2 0,0 -140.09,379.3 -110.91,386.9 29.17,7.7 89.89,-44.7 106.83,-65.2 16.93,-20.5 38.74,-43 55.68,-63.5 16.91,-20.5 46.25,-25.3 73.37,-6.6 27.14,18.6 -22.54,114.7 -46.37,144.6 -74.29,93.2 -323.32,303.6 -348.7,326.9 -30.05,27.7 -150.63,728.2 -211.25,965.3 0.03,0 -142.18,999.7 -151.24,1041.1 l 114.02,1499.8 -783.72,643.7 c 0,0 109.2,-2179.5 111.62,-2275 1.16,-45.4 471.25,-1800.7 496.89,-1874.3 0,0 17.06,-239.7 18.77,-392.9 1.72,-153.1 65.69,-294.1 72.9,-337.2 1.05,-6.3 17.63,-155.7 104.64,-319.9 74.95,-141.4 69.45,26.8 69.45,26.8 0,0 -91.27,286.8 -67.13,290.1 18.6,2.4 59.08,-157.1 140.38,-314.5 20.91,-40.5 41.7,-80.4 61.08,-116.8 50.88,-95.8 124.91,-92.2 87.8,16.4 -13.09,38.4 -36.41,101.5 -59.49,144.2 -24.94,46.2 -32.77,96.5 -47.72,138.5 -29.7,83.3 -52.42,143.6 -48.27,142.9 5.39,-0.8 11.3,19.9 34.84,-22.4 28.31,-50.8 64.25,-172 111.73,-243.6 26.93,-40.5 77.96,-128.7 77.96,-128.7 0,0 98.55,-134.1 107.61,-130.5 49.05,19.5 6.2,135.3 -37.68,185.6 -11.26,46.3 -67.6,137.6 -67.6,137.6 0,0 -72.06,209.9 -42.14,220.4 24.57,8.7 295.31,-461 343.08,-438.1 38.96,18.7 -36.01,163.6 -36.01,163.6"
                    style="fill:#f7a491;fill-opacity:1;fill-rule:nonzero;stroke:none"
                    id="path88"/>
            <path
                    d="m 6742.93,12451.5 c 0,0 834.74,112.6 958.25,237.2 0,0 -117.17,1627.3 -354.87,1763.5 -237.67,136.2 -450.44,-120.6 -548.17,-475.4 -97.71,-354.8 -102.8,-1409.8 -55.21,-1525.3"
                    style="fill:#b75742;fill-opacity:1;fill-rule:nonzero;stroke:none"
                    id="path90"/>
        </g>
    </g>
</svg>
